<svg width="27" height="28" viewBox="0 0 27 28" fill="none" xmlns="http://www.w3.org/2000/svg">
<path d="M13.4998 27.3332C6.13604 27.3332 0.166504 21.3636 0.166504 13.9998C0.166504 6.63604 6.13604 0.666504 13.4998 0.666504C20.8636 0.666504 26.8332 6.63604 26.8332 13.9998C26.8251 21.3603 20.8603 27.3251 13.4998 27.3332ZM13.4998 3.33317C7.6088 3.33317 2.83317 8.1088 2.83317 13.9998C2.83317 19.8909 7.6088 24.6665 13.4998 24.6665C19.3909 24.6665 24.1665 19.8909 24.1665 13.9998C24.1599 8.11154 19.3881 3.33978 13.4998 3.33317ZM18.8332 20.6665H8.1665V17.9998H18.8332V20.6665ZM8.83317 13.9998C7.7286 13.9998 6.83317 13.1044 6.83317 11.9998C6.83317 10.8953 7.7286 9.99984 8.83317 9.99984C9.93774 9.99984 10.8332 10.8953 10.8332 11.9998C10.8332 13.1044 9.93774 13.9998 8.83317 13.9998ZM18.1572 13.9812C17.0578 13.9812 16.1665 13.0899 16.1665 11.9905C16.1665 10.8911 17.0578 9.99984 18.1572 9.99984C19.2566 9.99984 20.1478 10.8911 20.1478 11.9905C20.1464 13.0893 19.256 13.9797 18.1572 13.9812Z" fill="white"/>
</svg>
