<svg width="18" height="17" viewBox="0 0 18 17" fill="none" xmlns="http://www.w3.org/2000/svg">
<path d="M9.00113 3.95324L7.63675 2.55662L7.63618 2.55605C7.28829 2.20177 6.87329 1.92037 6.41542 1.72827C5.95755 1.53617 5.466 1.43723 4.96946 1.43723C4.47293 1.43723 3.98138 1.53617 3.52351 1.72827C3.06572 1.92033 2.65078 2.20167 2.30293 2.55586C1.58892 3.2808 1.18871 4.25748 1.18871 5.275C1.18871 6.29259 1.58898 7.26935 2.30308 7.9943L2.30337 7.99459L8.77837 14.5508L9.00071 14.776L9.22306 14.5508L15.6981 7.99459L15.6983 7.9943C16.4124 7.26935 16.8127 6.29259 16.8127 5.275C16.8127 4.25752 16.4125 3.28088 15.6986 2.55595C15.3509 2.20148 14.9359 1.91997 14.4781 1.72791C14.0203 1.53591 13.5288 1.43718 13.0324 1.4375C13.0322 1.4375 13.0319 1.4375 13.0317 1.4375L13.032 1.75M9.00113 3.95324L10.3581 2.56949L10.3588 2.5687L10.582 2.7875M9.00113 3.95324L10.3572 2.57036M9.00113 3.95324L10.3572 2.57036M13.032 1.75C12.5748 1.74935 12.1222 1.84089 11.7013 2.01915C11.2803 2.19741 10.8996 2.45874 10.582 2.7875M13.032 1.75C13.487 1.74962 13.9376 1.84008 14.3572 2.01609C14.7768 2.1921 15.1571 2.45011 15.4757 2.775L13.032 1.75ZM10.582 2.7875L10.3572 2.57036M10.582 2.7875L10.3572 2.57036M13.0317 0.812502L13.0319 0.812502C13.6118 0.812661 14.1858 0.92827 14.7206 1.15259C15.2554 1.37691 15.7401 1.70544 16.1466 2.11904C16.9755 2.96287 17.4399 4.09841 17.4399 5.28125C17.4399 6.46391 16.9756 7.59929 16.147 8.44307C16.1468 8.44322 16.1467 8.44336 16.1465 8.44351L9.00071 15.6802L1.8549 8.44351C1.85479 8.4434 1.85468 8.44329 1.85458 8.44318C1.02585 7.59939 0.561523 6.46396 0.561523 5.28125C0.561523 4.09846 1.02592 2.96295 1.85476 2.11913C2.26134 1.70575 2.74613 1.37744 3.28088 1.15333C3.81563 0.929228 4.38965 0.813811 4.96946 0.813811C5.54928 0.813811 6.12329 0.929228 6.65805 1.15333C7.1928 1.37744 7.67759 1.70575 8.08417 2.11913L8.085 2.11998L8.77875 2.81998L9.00071 3.04394L9.22267 2.81998L9.91643 2.11998L9.91759 2.11879C10.3236 1.70475 10.8082 1.37593 11.3429 1.15161C11.8777 0.927301 12.4518 0.81201 13.0317 0.812502Z" fill="#BDBDBD" stroke="#252B42" stroke-width="0.625"/>
</svg>
